<?xml version="1.0" standalone="no"?>
<!DOCTYPE svg PUBLIC "-//W3C//DTD SVG 20010904//EN"
 "http://www.w3.org/TR/2001/REC-SVG-20010904/DTD/svg10.dtd">
<svg version="1.0" xmlns="http://www.w3.org/2000/svg"
 width="500.000000pt" height="500.000000pt" viewBox="0 0 500.000000 500.000000"
 preserveAspectRatio="xMidYMid meet">

<g transform="translate(0.000000,500.000000) scale(0.100000,-0.100000)"
fill="#000000" stroke="none">
<path d="M0 2500 l0 -2500 2500 0 2500 0 0 2500 0 2500 -2500 0 -2500 0 0
-2500z m3098 158 l2 -408 -85 0 -85 0 0 315 0 315 -340 0 -340 0 0 55 0 55
340 0 340 0 0 40 0 41 83 -3 82 -3 3 -407z m-1318 362 c85 -33 87 -36 48 -114
-23 -48 -37 -66 -48 -62 -8 3 -43 15 -78 27 -55 19 -68 20 -103 10 -28 -8 -43
-20 -50 -38 -16 -42 12 -70 118 -120 98 -45 173 -104 200 -157 23 -44 19 -137
-8 -193 -53 -110 -218 -161 -384 -118 -58 16 -147 58 -165 80 -6 7 5 34 32 81
23 38 42 71 44 73 2 2 16 -6 33 -18 87 -62 194 -80 245 -40 58 45 25 95 -106
159 -45 23 -98 56 -116 73 -120 115 -86 287 73 364 44 21 60 24 130 20 49 -3
101 -13 135 -27z m1850 -75 l0 -105 -155 0 -155 0 0 105 0 105 155 0 155 0 0
-105z m-1470 -114 l0 -88 77 -7 c42 -3 108 -6 147 -6 l71 0 64 -120 c36 -66
67 -117 69 -115 3 2 28 55 57 117 l52 113 97 3 c54 1 96 -1 94 -6 -1 -4 -86
-169 -188 -365 l-184 -357 -97 0 -96 0 82 163 83 162 -112 200 -111 200 -3
-58 -3 -57 -49 0 -50 0 0 -91 c0 -109 9 -131 52 -127 27 3 32 -1 43 -32 29
-85 29 -89 -12 -106 -50 -21 -144 -15 -181 12 -51 38 -66 86 -70 222 l-4 122
-34 0 -34 0 0 65 0 65 35 0 35 0 0 90 0 90 85 0 85 0 0 -89z m1379 -96 c93
-33 148 -102 158 -200 l6 -55 -177 0 c-102 0 -176 -4 -176 -9 0 -5 4 -21 10
-35 22 -60 113 -77 179 -33 l37 24 57 -29 c50 -25 56 -31 47 -47 -18 -34 -84
-81 -134 -96 -191 -57 -366 58 -366 240 0 109 67 203 173 242 45 16 137 16
186 -2z m-1844 -885 c0 -46 -3 -55 -19 -58 -23 -5 -36 14 -36 55 0 47 10 64
34 61 18 -3 21 -10 21 -58z m71 19 l12 -34 4 40 c4 31 5 26 6 -22 2 -70 -11
-83 -26 -25 l-10 37 -1 -37 c-2 -64 -21 -42 -21 23 0 68 15 76 36 18z m97 -72
c18 -4 17 -5 -5 -6 -28 -1 -28 -1 -26 62 l2 62 3 -57 c3 -49 7 -57 26 -61z
m54 21 c-2 -18 -4 -4 -4 32 0 36 2 50 4 33 2 -18 2 -48 0 -65z m71 60 l10 -33
1 33 c2 59 21 33 21 -29 0 -68 -15 -76 -36 -18 l-12 34 -4 -40 c-4 -31 -5 -26
-6 23 -2 68 9 81 26 30z m100 25 c-10 -2 -18 -13 -18 -24 0 -11 7 -19 18 -20
16 -1 16 -2 0 -6 -11 -3 -18 -14 -18 -28 0 -14 7 -25 18 -28 10 -3 6 -5 -10
-6 -28 -1 -28 0 -28 59 0 59 0 60 28 59 16 -1 20 -3 10 -6z m150 -15 c2 -10
-1 -18 -7 -18 -6 0 -11 7 -11 15 0 8 -4 15 -10 15 -5 0 -10 -22 -10 -50 0 -27
5 -50 10 -50 6 0 10 7 10 15 0 8 5 15 11 15 6 0 9 -8 7 -17 -4 -22 -38 -30
-49 -11 -10 15 -12 69 -3 93 8 21 48 16 52 -7z m52 -32 c0 -44 4 -55 18 -59
10 -3 6 -5 -10 -6 -28 -1 -28 0 -28 59 0 33 4 60 10 60 6 0 10 -24 10 -54z
m115 -6 c0 -46 -3 -55 -19 -58 -23 -5 -36 14 -36 55 0 47 10 64 34 61 18 -3
21 -10 21 -58z m88 53 c-8 -3 -13 -25 -13 -59 0 -30 -4 -54 -10 -54 -5 0 -10
24 -10 54 0 34 -5 56 -12 59 -7 3 3 5 22 5 19 0 29 -2 23 -5z m63 -43 c8 0 14
10 14 25 0 14 5 25 10 25 6 0 10 -27 10 -60 0 -33 -4 -60 -10 -60 -5 0 -10 14
-10 31 0 39 -22 34 -31 -7 -4 -18 -7 -6 -6 36 0 36 2 53 4 38 2 -16 11 -28 19
-28z m84 -10 c0 -33 -4 -60 -10 -60 -6 0 -10 27 -10 60 0 33 4 60 10 60 6 0
10 -27 10 -60z m66 19 l12 -34 4 40 c4 31 5 26 6 -22 2 -70 -11 -83 -26 -25
l-10 37 -1 -37 c-2 -64 -21 -42 -21 23 0 68 15 76 36 18z m112 16 c3 -18 2
-19 -8 -2 -17 26 -30 11 -30 -33 0 -41 16 -62 27 -35 3 10 0 21 -8 26 -11 7
-11 9 4 9 23 0 23 -48 1 -57 -34 -13 -57 54 -33 98 13 25 43 21 47 -6z m137
14 c4 -6 4 -13 0 -17 -4 -4 -10 -1 -12 6 -3 6 -9 12 -14 12 -16 0 -10 -29 12
-51 27 -27 21 -54 -11 -54 -17 0 -26 6 -28 20 -3 19 -2 19 11 3 19 -23 27 -23
27 2 0 11 -4 20 -10 20 -14 0 -32 39 -26 56 6 16 42 19 51 3z m82 -1 c-10 -8
-17 -32 -20 -63 l-3 -50 -2 57 c-1 34 -7 58 -14 61 -7 3 2 6 21 6 30 1 33 -1
18 -11z m91 -46 c2 -42 0 -54 -14 -59 -34 -13 -57 54 -33 98 20 38 44 19 47
-39z m88 -7 c1 -35 -1 -50 -5 -36 -9 35 -29 37 -34 4 -2 -15 -5 0 -6 35 -1 60
0 63 22 60 20 -3 22 -9 23 -63z m77 55 c-27 -11 -31 -40 -5 -40 16 -1 16 -1 0
-11 -25 -14 -22 -38 5 -49 21 -8 21 -9 -5 -9 -28 -1 -28 0 -28 59 0 59 0 60
28 59 26 0 26 -1 5 -9z"/>
<path d="M3395 2628 c-23 -13 -35 -28 -35 -45 0 -10 24 -13 85 -13 94 0 107
11 59 49 -29 23 -78 27 -109 9z"/>
<path d="M1660 1856 c0 -25 5 -48 10 -51 6 -4 10 13 10 44 0 28 -4 51 -10 51
-5 0 -10 -20 -10 -44z"/>
<path d="M2370 1856 c0 -25 5 -48 10 -51 6 -4 10 13 10 44 0 28 -4 51 -10 51
-5 0 -10 -20 -10 -44z"/>
<path d="M3095 1888 c-9 -23 -2 -83 10 -83 14 0 19 75 6 88 -7 7 -12 5 -16 -5z"/>
<path d="M3180 1875 c0 -17 5 -25 13 -22 6 2 12 12 12 22 0 10 -6 20 -12 23
-8 2 -13 -6 -13 -23z"/>
</g>
</svg>
